#!OML:ASF F:\VICON\USERDATA\INSTALL\rory3\rory3.ASF
:FULLY-SPECIFIED
:DEGREES
2609
root 0.15483 17.5756 -1.0879 13.067 -1.35003 0.22827
lowerback 5.52655 -0.930703 0.948804
upperback 0.942179 -1.13979 1.82425
thorax -2.10952 -0.569834 1.42584
lowerneck -14.4625 -11.2095 -13.2452
upperneck 14.7866 -16.0927 18.1964
head 9.73206 -6.77165 6.15713
rclavicle 7.15625e-015 -8.74653e-015
rhumerus -34.932 14.2545 -92.7648
rradius 47.1874
rwrist 18.2633
rhand 6.39239 16.7295
rfingers 7.12502
rthumb 31.6971 -10.5367
lclavicle 7.15625e-015 -8.74653e-015
lhumerus -29.6158 23.3985 79.291
lradius 20.4327
lwrist -15.3486
lhand -7.6129 21.2438
lfingers 7.12502
lthumb 18.2813 50.4048
rfemur -13.6939 14.3462 15.3423
rtibia 7.48004
rfoot -5.60028 -15.0492
rtoes -13.6376
lfemur -17.1024 -13.5847 -16.0719
ltibia 12.9767
lfoot -9.97518 9.54348
ltoes -16.366
2610
root 0.155733 17.5733 -1.08719 13.0856 -1.06565 0.180332
lowerback 5.4611 -0.979928 1.06564
upperback 0.934393 -1.20021 1.79969
thorax -2.08284 -0.600751 1.33813
lowerneck -14.3848 -11.2179 -13.2453
upperneck 14.8214 -16.1169 18.1892
head 9.73305 -6.78676 6.15383
rclavicle -3.77691e-015 -1.59028e-015
rhumerus -34.8325 14.446 -92.7237
rradius 47.606
rwrist 17.9547
rhand 5.84079 16.1949
rfingers 7.12502
rthumb 31.1716 -11.1738
lclavicle -3.77691e-015 -1.59028e-015
lhumerus -29.0859 22.0413 79.9993
lradius 20.1352
lwrist -15.8702
lhand -8.01405 21.2648
lfingers 7.12502
lthumb 17.8953 50.4615
rfemur -13.7735 14.0392 15.4844
rtibia 7.70534
rfoot -5.68845 -15.0076
rtoes -13.5428
lfemur -17.4069 -13.9113 -15.877
ltibia 13.3617
lfoot -10.1031 9.68358
ltoes -16.8161
2611
root 0.15628 17.5693 -1.08663 13.0844 -0.85222 0.140944
lowerback 5.43296 -1.01291 1.15377
upperback 0.893281 -1.2394 1.76917
thorax -2.11136 -0.620916 1.26008
lowerneck -14.1844 -11.2046 -13.2339
upperneck 14.7892 -16.112 18.1721
head 9.68077 -6.79798 6.15411
rclavicle 1.51076e-014 -1.70955e-014
rhumerus -34.7399 14.7371 -92.7284
rradius 48.0347
rwrist 17.4087
rhand 5.61372 15.7807
rfingers 7.12502
rthumb 30.9552 -11.6293
lclavicle 1.51076e-014 -1.70955e-014
lhumerus -28.634 20.4421 80.7496
lradius 19.9514
lwrist -16.3519
lhand -8.26687 21.5675
lfingers 7.12502
lthumb 17.652 50.7862
rfemur -13.883 13.8027 15.6149
rtibia 8.01253
rfoot -5.85991 -14.9784
rtoes -13.788
lfemur -17.6872 -14.1699 -15.7048
ltibia 13.7476
lfoot -10.3147 9.71498
ltoes -16.0923
2612
root 0.155496 17.5657 -1.08779 12.9877 -0.610832 0.10757
lowerback 5.52438 -1.07722 1.22474
upperback 0.877509 -1.31862 1.74819
thorax -2.17976 -0.660916 1.20666
lowerneck -14.086 -11.1771 -13.3118
upperneck 14.8235 -16.0835 18.222
head 9.6814 -6.78971 6.19491
rclavicle 4.37326e-015 -2.70347e-014
rhumerus -34.6102 15.0829 -92.7303
rradius 48.4573
rwrist 17.0239
rhand 5.34077 15.4128
rfingers 7.12502
rthumb 30.695 -12.0464
lclavicle 4.37326e-015 -2.70347e-014
lhumerus -28.0855 18.752 81.5368
lradius 19.6427
lwrist -16.7938
lhand -8.52472 21.6334
lfingers 7.12502
lthumb 17.4039 50.8742
rfemur -13.9464 13.538 15.7803
rtibia 8.42093
rfoot -6.0662 -14.8945
rtoes -13.5796
lfemur -17.8693 -14.4596 -15.5412
ltibia 14.1145
lfoot -10.3983 9.82944
ltoes -16.2883
2613
root 0.154831 17.5615 -1.08744 12.8944 -0.362387 0.109819
lowerback 5.5706 -1.14803 1.26628
upperback 0.86973 -1.40978 1.7132
thorax -2.21443 -0.706706 1.15526
lowerneck -13.995 -11.133 -13.2985
upperneck 14.8288 -16.0281 18.1962
head 9.65236 -6.77074 6.19763
rclavicle 8.94531e-015 -1.03368e-014
rhumerus -34.4431 15.428 -92.6972
rradius 48.7949
rwrist 16.9469
rhand 4.74791 15.2255
rfingers 7.12502
rthumb 30.1295 -12.3383
lclavicle 8.94531e-015 -1.03368e-014
lhumerus -27.4368 16.2071 82.616
lradius 19.4704
lwrist -16.5885
lhand -8.65218 21.6883
lfingers 7.12502
lthumb 17.2812 50.94
rfemur -14.0466 13.2629 15.889
rtibia 8.88644
rfoot -6.28057 -14.8722
rtoes -12.7178
lfemur -18.0618 -14.7662 -15.4161
ltibia 14.4974
lfoot -10.2633 9.99586
ltoes -17.6763
2614
root 0.155355 17.5564 -1.084 12.7639 -0.108945 0.0829715
lowerback 5.59163 -1.22637 1.33066
upperback 0.872053 -1.50996 1.69621
thorax -2.22489 -0.757097 1.1096
lowerneck -13.9072 -11.0739 -13.2655
upperneck 14.8467 -15.9518 18.1454
head 9.62024 -6.74248 6.19211
rclavicle 1.75924e-014 7.95139e-016
rhumerus -34.2833 15.7014 -92.6566
rradius 49.0879
rwrist 16.9778
rhand 4.18219 15.0406
rfingers 7.12502
rthumb 29.5896 -12.6202
lclavicle 1.75924e-014 7.95139e-016
lhumerus -26.9396 12.9534 83.8753
lradius 19.6055
lwrist -15.8063
lhand -8.78001 21.9952
lfingers 7.12502
lthumb 17.1582 51.2576
rfemur -14.1033 12.9908 16.0316
rtibia 9.38241
rfoot -6.55403 -14.8228
rtoes -12.2938
lfemur -18.2013 -15.0799 -15.2892
ltibia 14.8882
lfoot -10.1647 10.117
ltoes -18.4759
2615
root 0.154805 17.5498 -1.0825 12.7171 0.166956 0.0452919
lowerback 5.56315 -1.29312 1.39979
upperback 0.82397 -1.59428 1.69564
thorax -2.25962 -0.7997 1.07664
lowerneck -13.8503 -11.0567 -13.3037
upperneck 14.9276 -15.9313 18.113
head 9.63353 -6.73848 6.19453
rclavicle 4.17448e-015 -7.95139e-016
rhumerus -34.1735 15.9287 -92.5528
rradius 49.4955
rwrist 16.9674
rhand 3.79636 14.9329
rfingers 7.12502
rthumb 29.2213 -12.7926
lclavicle 4.17448e-015 -7.95139e-016
lhumerus -26.621 9.69624 85.1171
lradius 19.9265
lwrist -15.1373
lhand -8.83308 22.3233
lfingers 7.12502
lthumb 17.1071 51.5902
rfemur -14.2181 12.6945 16.1755
rtibia 9.8192
rfoot -6.7656 -14.804
rtoes -12.2087
lfemur -18.452 -15.3996 -15.1024
ltibia 15.2843
lfoot -10.4791 10.1771
ltoes -17.9874
